<mxfile host="Electron" modified="2024-07-13T15:20:43.599Z" agent="Mozilla/5.0 (Windows NT 10.0; Win64; x64) AppleWebKit/537.36 (KHTML, like Gecko) draw.io/24.5.3 Chrome/124.0.6367.207 Electron/30.0.6 Safari/537.36" etag="VnncqD-c98boBfR3pKJN" version="24.5.3" type="device">
  <diagram name="Page-1" id="wh-fc5P__43-BtN5idvo">
    <mxGraphModel dx="941" dy="644" grid="1" gridSize="10" guides="1" tooltips="1" connect="1" arrows="1" fold="1" page="1" pageScale="1" pageWidth="850" pageHeight="1100" math="0" shadow="0">
      <root>
        <mxCell id="0" />
        <mxCell id="1" parent="0" />
        <mxCell id="2d5-hqAjJG6SJmXFRQh5-1" value="" style="rounded=0;whiteSpace=wrap;html=1;" vertex="1" parent="1">
          <mxGeometry x="30" y="60" width="790" height="620" as="geometry" />
        </mxCell>
        <mxCell id="2d5-hqAjJG6SJmXFRQh5-4" value="" style="rounded=0;whiteSpace=wrap;html=1;dashed=1;" vertex="1" parent="1">
          <mxGeometry x="60" y="90" width="730" height="470" as="geometry" />
        </mxCell>
        <mxCell id="2d5-hqAjJG6SJmXFRQh5-6" value="" style="rounded=0;whiteSpace=wrap;html=1;dashed=1;dashPattern=8 8;strokeColor=#00994D;" vertex="1" parent="1">
          <mxGeometry x="90" y="60" width="280" height="530" as="geometry" />
        </mxCell>
        <mxCell id="2d5-hqAjJG6SJmXFRQh5-7" value="" style="rounded=0;whiteSpace=wrap;html=1;dashed=1;dashPattern=8 8;strokeColor=#00994D;" vertex="1" parent="1">
          <mxGeometry x="490" y="60" width="270" height="530" as="geometry" />
        </mxCell>
        <mxCell id="2d5-hqAjJG6SJmXFRQh5-8" value="" style="rounded=0;whiteSpace=wrap;html=1;" vertex="1" parent="1">
          <mxGeometry x="110" y="110" width="240" height="200" as="geometry" />
        </mxCell>
        <mxCell id="2d5-hqAjJG6SJmXFRQh5-9" value="" style="rounded=0;whiteSpace=wrap;html=1;" vertex="1" parent="1">
          <mxGeometry x="110" y="350" width="240" height="200" as="geometry" />
        </mxCell>
        <mxCell id="2d5-hqAjJG6SJmXFRQh5-10" value="" style="rounded=0;whiteSpace=wrap;html=1;" vertex="1" parent="1">
          <mxGeometry x="505" y="350" width="240" height="200" as="geometry" />
        </mxCell>
        <mxCell id="2d5-hqAjJG6SJmXFRQh5-11" value="" style="rounded=0;whiteSpace=wrap;html=1;" vertex="1" parent="1">
          <mxGeometry x="505" y="110" width="240" height="200" as="geometry" />
        </mxCell>
        <mxCell id="2d5-hqAjJG6SJmXFRQh5-13" value="Public Subnet 1" style="text;html=1;align=center;verticalAlign=middle;whiteSpace=wrap;rounded=0;fillColor=#f8cecc;strokeColor=#b85450;" vertex="1" parent="1">
          <mxGeometry x="110" y="110" width="60" height="30" as="geometry" />
        </mxCell>
        <mxCell id="2d5-hqAjJG6SJmXFRQh5-14" value="Public Subnet 2" style="text;html=1;align=center;verticalAlign=middle;whiteSpace=wrap;rounded=0;fillColor=#f8cecc;strokeColor=#b85450;" vertex="1" parent="1">
          <mxGeometry x="505" y="110" width="60" height="30" as="geometry" />
        </mxCell>
        <mxCell id="2d5-hqAjJG6SJmXFRQh5-15" value="Private&lt;div&gt;Subnet 2&lt;/div&gt;" style="text;html=1;align=center;verticalAlign=middle;whiteSpace=wrap;rounded=0;fillColor=#dae8fc;strokeColor=#6c8ebf;" vertex="1" parent="1">
          <mxGeometry x="505" y="350" width="60" height="30" as="geometry" />
        </mxCell>
        <mxCell id="2d5-hqAjJG6SJmXFRQh5-16" value="Private&lt;div&gt;Subnet 1&lt;/div&gt;" style="text;html=1;align=center;verticalAlign=middle;whiteSpace=wrap;rounded=0;fillColor=#dae8fc;strokeColor=#6c8ebf;" vertex="1" parent="1">
          <mxGeometry x="110" y="350" width="60" height="30" as="geometry" />
        </mxCell>
        <mxCell id="2d5-hqAjJG6SJmXFRQh5-21" value="&lt;b&gt;Availability Zone1&lt;/b&gt;" style="text;html=1;align=center;verticalAlign=middle;whiteSpace=wrap;rounded=0;fillColor=#d5e8d4;strokeColor=#82b366;" vertex="1" parent="1">
          <mxGeometry x="110" y="60" width="110" height="30" as="geometry" />
        </mxCell>
        <mxCell id="2d5-hqAjJG6SJmXFRQh5-22" value="&lt;b&gt;Availability Zone2&lt;/b&gt;" style="text;html=1;align=center;verticalAlign=middle;whiteSpace=wrap;rounded=0;fillColor=#d5e8d4;strokeColor=#82b366;" vertex="1" parent="1">
          <mxGeometry x="505" y="60" width="125" height="30" as="geometry" />
        </mxCell>
        <mxCell id="2d5-hqAjJG6SJmXFRQh5-23" value="&lt;b&gt;VPC&lt;/b&gt;" style="text;html=1;align=center;verticalAlign=middle;whiteSpace=wrap;rounded=0;rotation=-90;fillColor=#fff2cc;strokeColor=#d6b656;" vertex="1" parent="1">
          <mxGeometry x="30" y="490" width="60" height="30" as="geometry" />
        </mxCell>
        <mxCell id="2d5-hqAjJG6SJmXFRQh5-24" value="Region" style="text;html=1;align=center;verticalAlign=middle;whiteSpace=wrap;rounded=0;rotation=-90;fillColor=#e1d5e7;strokeColor=#9673a6;" vertex="1" parent="1">
          <mxGeometry y="270" width="60" height="30" as="geometry" />
        </mxCell>
        <mxCell id="2d5-hqAjJG6SJmXFRQh5-46" value="" style="outlineConnect=0;dashed=0;verticalLabelPosition=bottom;verticalAlign=top;align=center;html=1;shape=mxgraph.aws3.s3;fillColor=#E05243;gradientColor=none;" vertex="1" parent="1">
          <mxGeometry x="410" y="588.5" width="48" height="53" as="geometry" />
        </mxCell>
        <mxCell id="2d5-hqAjJG6SJmXFRQh5-47" value="&lt;font color=&quot;#000000&quot;&gt;&lt;b&gt;S3 Bucket&lt;/b&gt;&lt;/font&gt;" style="text;html=1;align=center;verticalAlign=middle;whiteSpace=wrap;rounded=0;fillColor=#60a917;fontColor=#ffffff;strokeColor=#2D7600;sketch=1;curveFitting=1;jiggle=2;" vertex="1" parent="1">
          <mxGeometry x="396" y="641.5" width="76" height="30" as="geometry" />
        </mxCell>
        <mxCell id="2d5-hqAjJG6SJmXFRQh5-48" value="NAT Gateway" style="outlineConnect=0;dashed=0;verticalLabelPosition=bottom;verticalAlign=top;align=center;html=1;shape=mxgraph.aws3.vpc_nat_gateway;fillColor=#F58534;gradientColor=none;" vertex="1" parent="1">
          <mxGeometry x="140.5" y="160" width="49" height="52" as="geometry" />
        </mxCell>
        <mxCell id="2d5-hqAjJG6SJmXFRQh5-74" value="" style="edgeStyle=orthogonalEdgeStyle;rounded=0;orthogonalLoop=1;jettySize=auto;html=1;" edge="1" parent="1" source="2d5-hqAjJG6SJmXFRQh5-49" target="2d5-hqAjJG6SJmXFRQh5-53">
          <mxGeometry relative="1" as="geometry" />
        </mxCell>
        <mxCell id="2d5-hqAjJG6SJmXFRQh5-49" value="ECS Frontend&amp;nbsp;&lt;div&gt;Container&lt;/div&gt;" style="outlineConnect=0;dashed=0;verticalLabelPosition=bottom;verticalAlign=top;align=center;html=1;shape=mxgraph.aws3.instance;fillColor=#F58534;gradientColor=none;" vertex="1" parent="1">
          <mxGeometry x="185" y="380" width="35" height="43" as="geometry" />
        </mxCell>
        <mxCell id="2d5-hqAjJG6SJmXFRQh5-52" value="ECS Frontend&amp;nbsp;&lt;div&gt;Container&lt;/div&gt;" style="outlineConnect=0;dashed=0;verticalLabelPosition=bottom;verticalAlign=top;align=center;html=1;shape=mxgraph.aws3.instance;fillColor=#F58534;gradientColor=none;" vertex="1" parent="1">
          <mxGeometry x="580" y="380" width="35" height="43" as="geometry" />
        </mxCell>
        <mxCell id="2d5-hqAjJG6SJmXFRQh5-53" value="ECS Backend&amp;nbsp;&lt;div&gt;Container&lt;/div&gt;" style="outlineConnect=0;dashed=0;verticalLabelPosition=bottom;verticalAlign=top;align=center;html=1;shape=mxgraph.aws3.instance;fillColor=#F58534;gradientColor=none;" vertex="1" parent="1">
          <mxGeometry x="185" y="470" width="35" height="43" as="geometry" />
        </mxCell>
        <mxCell id="2d5-hqAjJG6SJmXFRQh5-55" value="ECS Backend&amp;nbsp;&lt;div&gt;Container&lt;/div&gt;" style="outlineConnect=0;dashed=0;verticalLabelPosition=bottom;verticalAlign=top;align=center;html=1;shape=mxgraph.aws3.instance;fillColor=#F58534;gradientColor=none;" vertex="1" parent="1">
          <mxGeometry x="580" y="470" width="35" height="43" as="geometry" />
        </mxCell>
        <mxCell id="2d5-hqAjJG6SJmXFRQh5-56" value="NAT Gateway" style="outlineConnect=0;dashed=0;verticalLabelPosition=bottom;verticalAlign=top;align=center;html=1;shape=mxgraph.aws3.vpc_nat_gateway;fillColor=#F58534;gradientColor=none;" vertex="1" parent="1">
          <mxGeometry x="530" y="160" width="49" height="52" as="geometry" />
        </mxCell>
        <mxCell id="2d5-hqAjJG6SJmXFRQh5-60" style="edgeStyle=orthogonalEdgeStyle;rounded=0;orthogonalLoop=1;jettySize=auto;html=1;" edge="1" parent="1" source="2d5-hqAjJG6SJmXFRQh5-52" target="2d5-hqAjJG6SJmXFRQh5-49">
          <mxGeometry relative="1" as="geometry">
            <Array as="points">
              <mxPoint x="598" y="330" />
              <mxPoint x="203" y="330" />
            </Array>
          </mxGeometry>
        </mxCell>
        <mxCell id="2d5-hqAjJG6SJmXFRQh5-61" style="edgeStyle=orthogonalEdgeStyle;rounded=0;orthogonalLoop=1;jettySize=auto;html=1;exitX=0.5;exitY=1;exitDx=0;exitDy=0;exitPerimeter=0;" edge="1" parent="1" source="2d5-hqAjJG6SJmXFRQh5-58">
          <mxGeometry relative="1" as="geometry">
            <mxPoint x="410" y="330" as="targetPoint" />
          </mxGeometry>
        </mxCell>
        <mxCell id="2d5-hqAjJG6SJmXFRQh5-58" value="ALB" style="outlineConnect=0;dashed=0;verticalLabelPosition=bottom;verticalAlign=top;align=center;html=1;shape=mxgraph.aws3.application_load_balancer;fillColor=#F58534;gradientColor=none;" vertex="1" parent="1">
          <mxGeometry x="250" y="160" width="50" height="50" as="geometry" />
        </mxCell>
        <mxCell id="2d5-hqAjJG6SJmXFRQh5-63" style="edgeStyle=orthogonalEdgeStyle;rounded=0;orthogonalLoop=1;jettySize=auto;html=1;exitX=0.5;exitY=1;exitDx=0;exitDy=0;exitPerimeter=0;" edge="1" parent="1" source="2d5-hqAjJG6SJmXFRQh5-62">
          <mxGeometry relative="1" as="geometry">
            <mxPoint x="410" y="330" as="targetPoint" />
          </mxGeometry>
        </mxCell>
        <mxCell id="2d5-hqAjJG6SJmXFRQh5-62" value="ALB" style="outlineConnect=0;dashed=0;verticalLabelPosition=bottom;verticalAlign=top;align=center;html=1;shape=mxgraph.aws3.application_load_balancer;fillColor=#F58534;gradientColor=none;" vertex="1" parent="1">
          <mxGeometry x="660" y="162" width="50" height="50" as="geometry" />
        </mxCell>
        <mxCell id="2d5-hqAjJG6SJmXFRQh5-64" value="NLB" style="outlineConnect=0;dashed=0;verticalLabelPosition=bottom;verticalAlign=top;align=center;html=1;shape=mxgraph.aws3.application_load_balancer;fillColor=#F58534;gradientColor=none;" vertex="1" parent="1">
          <mxGeometry x="290" y="376.5" width="50" height="50" as="geometry" />
        </mxCell>
        <mxCell id="2d5-hqAjJG6SJmXFRQh5-65" style="edgeStyle=orthogonalEdgeStyle;rounded=0;orthogonalLoop=1;jettySize=auto;html=1;exitX=1;exitY=0.5;exitDx=0;exitDy=0;exitPerimeter=0;entryX=0;entryY=0.5;entryDx=0;entryDy=0;entryPerimeter=0;" edge="1" parent="1" source="2d5-hqAjJG6SJmXFRQh5-49" target="2d5-hqAjJG6SJmXFRQh5-64">
          <mxGeometry relative="1" as="geometry" />
        </mxCell>
        <mxCell id="2d5-hqAjJG6SJmXFRQh5-66" style="edgeStyle=orthogonalEdgeStyle;rounded=0;orthogonalLoop=1;jettySize=auto;html=1;exitX=0;exitY=0.5;exitDx=0;exitDy=0;exitPerimeter=0;entryX=1;entryY=0.5;entryDx=0;entryDy=0;entryPerimeter=0;" edge="1" parent="1" source="2d5-hqAjJG6SJmXFRQh5-52" target="2d5-hqAjJG6SJmXFRQh5-64">
          <mxGeometry relative="1" as="geometry" />
        </mxCell>
        <mxCell id="2d5-hqAjJG6SJmXFRQh5-67" style="edgeStyle=orthogonalEdgeStyle;rounded=0;orthogonalLoop=1;jettySize=auto;html=1;exitX=0.5;exitY=1;exitDx=0;exitDy=0;exitPerimeter=0;entryX=1;entryY=0.5;entryDx=0;entryDy=0;entryPerimeter=0;" edge="1" parent="1" source="2d5-hqAjJG6SJmXFRQh5-64" target="2d5-hqAjJG6SJmXFRQh5-53">
          <mxGeometry relative="1" as="geometry" />
        </mxCell>
        <mxCell id="2d5-hqAjJG6SJmXFRQh5-68" style="edgeStyle=orthogonalEdgeStyle;rounded=0;orthogonalLoop=1;jettySize=auto;html=1;exitX=0.5;exitY=1;exitDx=0;exitDy=0;exitPerimeter=0;entryX=0;entryY=0.5;entryDx=0;entryDy=0;entryPerimeter=0;" edge="1" parent="1" source="2d5-hqAjJG6SJmXFRQh5-64" target="2d5-hqAjJG6SJmXFRQh5-55">
          <mxGeometry relative="1" as="geometry" />
        </mxCell>
        <mxCell id="2d5-hqAjJG6SJmXFRQh5-70" value="" style="endArrow=classic;html=1;rounded=0;entryX=0.867;entryY=-0.05;entryDx=0;entryDy=0;entryPerimeter=0;" edge="1" parent="1" target="2d5-hqAjJG6SJmXFRQh5-16">
          <mxGeometry width="50" height="50" relative="1" as="geometry">
            <mxPoint x="160" y="235" as="sourcePoint" />
            <mxPoint x="210" y="185" as="targetPoint" />
          </mxGeometry>
        </mxCell>
        <mxCell id="2d5-hqAjJG6SJmXFRQh5-71" value="" style="endArrow=classic;html=1;rounded=0;entryX=0.867;entryY=-0.05;entryDx=0;entryDy=0;entryPerimeter=0;" edge="1" parent="1">
          <mxGeometry width="50" height="50" relative="1" as="geometry">
            <mxPoint x="550" y="236" as="sourcePoint" />
            <mxPoint x="552" y="350" as="targetPoint" />
          </mxGeometry>
        </mxCell>
        <mxCell id="2d5-hqAjJG6SJmXFRQh5-72" value="" style="endArrow=classic;html=1;rounded=0;entryX=0.167;entryY=0.65;entryDx=0;entryDy=0;entryPerimeter=0;" edge="1" parent="1">
          <mxGeometry width="50" height="50" relative="1" as="geometry">
            <mxPoint x="141" y="340" as="sourcePoint" />
            <mxPoint x="140.49999999999991" y="240" as="targetPoint" />
          </mxGeometry>
        </mxCell>
        <mxCell id="2d5-hqAjJG6SJmXFRQh5-73" value="" style="endArrow=classic;html=1;rounded=0;entryX=0.167;entryY=0.65;entryDx=0;entryDy=0;entryPerimeter=0;" edge="1" parent="1">
          <mxGeometry width="50" height="50" relative="1" as="geometry">
            <mxPoint x="535" y="340" as="sourcePoint" />
            <mxPoint x="534.4999999999999" y="240" as="targetPoint" />
          </mxGeometry>
        </mxCell>
        <mxCell id="2d5-hqAjJG6SJmXFRQh5-76" style="edgeStyle=orthogonalEdgeStyle;rounded=0;orthogonalLoop=1;jettySize=auto;html=1;exitX=1;exitY=0.5;exitDx=0;exitDy=0;entryX=0;entryY=0.5;entryDx=0;entryDy=0;" edge="1" parent="1" source="2d5-hqAjJG6SJmXFRQh5-75" target="2d5-hqAjJG6SJmXFRQh5-47">
          <mxGeometry relative="1" as="geometry" />
        </mxCell>
        <mxCell id="2d5-hqAjJG6SJmXFRQh5-75" value="Endpoint" style="text;html=1;align=center;verticalAlign=middle;whiteSpace=wrap;rounded=0;" vertex="1" parent="1">
          <mxGeometry x="160" y="611.5" width="60" height="30" as="geometry" />
        </mxCell>
        <mxCell id="2d5-hqAjJG6SJmXFRQh5-77" style="edgeStyle=orthogonalEdgeStyle;rounded=0;orthogonalLoop=1;jettySize=auto;html=1;exitX=0;exitY=0.5;exitDx=0;exitDy=0;entryX=0.012;entryY=1.001;entryDx=0;entryDy=0;entryPerimeter=0;" edge="1" parent="1" source="2d5-hqAjJG6SJmXFRQh5-75" target="2d5-hqAjJG6SJmXFRQh5-4">
          <mxGeometry relative="1" as="geometry" />
        </mxCell>
      </root>
    </mxGraphModel>
  </diagram>
</mxfile>
